<?xml version="1.0" standalone="no"?>
<!DOCTYPE svg PUBLIC "-//W3C//DTD SVG 20010904//EN"
 "http://www.w3.org/TR/2001/REC-SVG-20010904/DTD/svg10.dtd">
<svg version="1.0" xmlns="http://www.w3.org/2000/svg"
 width="400.000000pt" height="400.000000pt" viewBox="0 0 400.000000 400.000000"
 preserveAspectRatio="xMidYMid meet">

<g transform="translate(0.000000,400.000000) scale(0.100000,-0.100000)"
fill="#FF7B5A" stroke="none">
<path d="M2184 3081 c-26 -5 -77 -32 -150 -81 -60 -41 -181 -123 -269 -183
-88 -60 -205 -139 -260 -175 -103 -67 -135 -92 -245 -196 -36 -34 -117 -108
-180 -166 -149 -136 -159 -146 -166 -176 -13 -49 5 -102 101 -297 l97 -198
156 -117 c131 -97 187 -149 336 -305 100 -105 196 -197 217 -207 20 -11 85
-27 144 -36 161 -25 172 -19 336 172 24 28 82 93 128 145 107 120 132 148 211
239 36 41 78 88 93 105 47 49 54 80 67 275 11 174 16 198 71 411 32 124 59
238 59 253 0 42 -22 84 -90 176 -96 130 -105 137 -265 217 -82 41 -164 86
-182 100 -34 26 -113 54 -147 52 -12 -1 -39 -5 -62 -8z m152 -128 c21 -14 104
-59 184 -98 l145 -73 73 -97 c39 -53 72 -106 72 -116 0 -11 -9 -52 -19 -92
-11 -39 -34 -126 -52 -192 -17 -66 -37 -151 -43 -190 l-12 -70 -94 90 c-229
218 -209 192 -295 385 -101 227 -149 278 -270 281 -79 2 -73 12 53 97 169 115
191 121 258 75z m-376 -274 c63 -6 123 -16 133 -22 10 -7 38 -56 63 -111 50
-112 53 -95 -31 -184 -30 -33 -55 -47 -105 -63 -35 -11 -85 -32 -110 -48 -120
-74 -184 -101 -328 -134 -19 -4 -32 7 -82 73 -80 105 -103 123 -159 118 l-43
-3 90 83 c109 100 396 301 432 301 14 1 77 -4 140 -10z m453 -723 c-30 -72
-64 -155 -75 -184 -16 -40 -35 -64 -77 -98 l-56 -46 -170 7 c-93 4 -231 12
-305 18 l-135 12 1 33 c0 17 1 92 2 166 l2 133 98 27 c101 28 194 68 275 118
26 17 75 39 108 49 63 20 130 62 155 97 13 19 20 14 123 -90 l108 -110 -54
-132z m-986 159 l54 -70 -3 -187 -3 -188 -111 0 c-138 0 -171 6 -180 33 -3 11
-39 88 -80 171 -41 83 -74 159 -74 168 0 37 59 72 183 110 67 20 131 35 141
35 11 -1 43 -32 73 -72z m1201 -178 l52 -53 -7 -79 -6 -78 -246 -280 c-356
-405 -358 -407 -372 -407 -29 0 -157 22 -181 31 -15 6 -104 94 -199 195 -155
165 -245 249 -304 282 -31 18 103 15 443 -9 163 -11 335 -19 382 -17 80 3 89
5 130 37 97 75 104 85 175 262 38 93 71 169 75 169 3 0 29 -24 58 -53z"/>
</g>
</svg>
